<svg height="260pt" preserveAspectRatio="xMidYMid meet" viewBox="0 0 260 260" width="260pt" xmlns="http://www.w3.org/2000/svg"><g transform="matrix(.1 0 0 -.1 0 260)"><path d="m1265 1759c-102-23-198-106-227-196-24-72-17-166 17-236 16-31 32-57 37-57s34 16 63 36l54 35-25 46c-79 149 63 298 235 247 96-28 142-112 119-218-12-58-60-104-162-157-178-91-252-152-296-243-32-67-49-159-31-170 8-5 556-11 626-7 6 1 10 27 10 64l-1 62-232 3c-128 1-232 6-232 10 0 11 31 55 50 70 8 7 75 46 147 88 149 85 205 133 240 211 60 130 16 297-96 368-79 49-196 67-296 44z"/><path d="m367 1727c-15-31-182-435-274-662-25-60-56-136-69-167-13-32-24-59-24-60 0-2 21-2 47-1 27 1 63 2 80 2 36 1 43 12 93 146 13 33 27 64 31 69 6 7 280 11 424 7 29-1 32-6 74-111l44-110 41-1c54-1 110 2 115 7 2 2-57 151-132 331s-159 385-187 454l-51 126-99 1-98 1zm202-319c44-114 81-209 81-211s-76-4-170-4c-111 0-170 4-170 10 0 22 165 426 171 419 4-4 43-100 88-214z"/><path d="m1839 1737c-3-128 1-890 5-894 9-10 496-3 543 7 93 21 157 72 194 154 17 40 20 61 15 108-3 32-12 71-20 87-19 36-73 83-114 100l-33 14 35 21c71 43 113 129 101 208-13 84-62 144-154 186-55 26-60 26-313 28l-258 2zm493-127c110-31 119-185 12-220-34-12-294-20-341-12-20 4-21 9-21 115 1 62 3 115 5 120 6 11 303 8 345-3zm28-378c62-28 90-71 85-134-3-51-21-76-74-103-31-16-150-21-363-16l-26 1v128c0 70 2 130 4 133 6 11 348 2 374-9z"/></g></svg>