<?xml version="1.0" standalone="no"?>
<!DOCTYPE svg PUBLIC "-//W3C//DTD SVG 20010904//EN"
 "http://www.w3.org/TR/2001/REC-SVG-20010904/DTD/svg10.dtd">
<svg version="1.0" xmlns="http://www.w3.org/2000/svg"
 width="260.000000pt" height="260.000000pt" viewBox="0 0 260.000000 260.000000"
 preserveAspectRatio="xMidYMid meet">
<metadata>
Created by potrace 1.14, written by Peter Selinger 2001-2017
</metadata>
<g transform="translate(0.000000,260.000000) scale(0.100000,-0.100000)"
fill="#000000" stroke="none">
<path d="M1265 1759 c-102 -23 -198 -106 -227 -196 -24 -72 -17 -166 17 -236
16 -31 32 -57 37 -57 5 0 34 16 63 36 l54 35 -25 46 c-79 149 63 298 235 247
96 -28 142 -112 119 -218 -12 -58 -60 -104 -162 -157 -178 -91 -252 -152 -296
-243 -32 -67 -49 -159 -31 -170 8 -5 556 -11 626 -7 6 1 10 27 10 64 l-1 62
-232 3 c-128 1 -232 6 -232 10 0 11 31 55 50 70 8 7 75 46 147 88 149 85 205
133 240 211 60 130 16 297 -96 368 -79 49 -196 67 -296 44z"/>
<path d="M367 1727 c-15 -31 -182 -435 -274 -662 -25 -60 -56 -136 -69 -167
-13 -32 -24 -59 -24 -60 0 -2 21 -2 47 -1 27 1 63 2 80 2 36 1 43 12 93 146
13 33 27 64 31 69 6 7 280 11 424 7 29 -1 32 -6 74 -111 l44 -110 41 -1 c54
-1 110 2 115 7 2 2 -57 151 -132 331 -75 180 -159 385 -187 454 l-51 126 -99
1 -98 1 -15 -32z m202 -319 c44 -114 81 -209 81 -211 0 -2 -76 -4 -170 -4
-111 0 -170 4 -170 10 0 22 165 426 171 419 4 -4 43 -100 88 -214z"/>
<path d="M1839 1737 c-3 -128 1 -890 5 -894 9 -10 496 -3 543 7 93 21 157 72
194 154 17 40 20 61 15 108 -3 32 -12 71 -20 87 -19 36 -73 83 -114 100 l-33
14 35 21 c71 43 113 129 101 208 -13 84 -62 144 -154 186 -55 26 -60 26 -313
28 l-258 2 -1 -21z m493 -127 c110 -31 119 -185 12 -220 -34 -12 -294 -20
-341 -12 -20 4 -21 9 -21 115 1 62 3 115 5 120 6 11 303 8 345 -3z m28 -378
c62 -28 90 -71 85 -134 -3 -51 -21 -76 -74 -103 -31 -16 -150 -21 -363 -16
l-26 1 0 128 c0 70 2 130 4 133 6 11 348 2 374 -9z"/>
</g>
</svg>
